<svg xmlns="http://www.w3.org/2000/svg" version="1.1" xmlns:xlink="http://www.w3.org/1999/xlink" xmlns:svgjs="http://svgjs.dev/svgjs" width="1000" height="623" viewBox="0 0 1000 623"><g transform="matrix(1,0,0,1,-0.6060606060606233,0.2522267206477409)"><svg viewBox="0 0 396 247" data-background-color="#ffffff" preserveAspectRatio="xMidYMid meet" height="623" width="1000" xmlns="http://www.w3.org/2000/svg" xmlns:xlink="http://www.w3.org/1999/xlink"><g id="tight-bounds" transform="matrix(1,0,0,1,0.2400000000000091,-0.09999999999999432)"><svg viewBox="0 0 395.52 247.2" height="247.2" width="395.52"><g><svg></svg></g><g><svg viewBox="0 0 395.52 247.2" height="247.2" width="395.52"><mask id="9cc258b9-14ff-415a-ba38-e31cb749fb14"><rect width="395.52" height="247.2" fill="white"></rect><g transform="matrix(1,0,0,1,131.89992727272727,37.08)" id="clone"><svg viewBox="0 0 131.72014545454547 173.04" height="173.04" width="131.72014545454547"><g><svg viewBox="0 0 131.72014545454547 173.04" height="173.04" width="131.72014545454547"><g><svg viewBox="0 0 131.72014545454547 173.04" height="173.04" width="131.72014545454547"><g><svg viewBox="0 0 131.72014545454547 173.04" height="173.04" width="131.72014545454547"><g id="SvgjsG1094"><svg viewBox="0 0 131.72014545454547 173.04" height="173.04" width="131.72014545454547" id="SvgjsSvg1093"><g><svg viewBox="0 0 131.72014545454547 173.04" height="173.04" width="131.72014545454547"><g transform="matrix(1,0,0,1,0,0)"><svg width="131.72014545454547" viewBox="1.4499998092651367 -39.25 32.400001525878906 42.25" height="173.04" data-palette-color="#233565"><path d="M9.95 0L4.45 0 4.45-36.25 14.35-36.25Q17.2-36.25 19.58-35.5 21.95-34.75 23.68-33.27 25.4-31.8 26.35-29.68 27.3-27.55 27.3-24.8L27.3-24.8Q27.3-23.3 27-21.83 26.7-20.35 26.03-18.98 25.35-17.6 24.3-16.43 23.25-15.25 21.75-14.45L21.75-14.45Q23.75-11.3 26.1-7.48 28.45-3.65 30.85 0L30.85 0 24.3 0Q23.3-1.55 22.23-3.25 21.15-4.95 20.08-6.63 19-8.3 17.98-9.93 16.95-11.55 16.05-12.95L16.05-12.95 15.05-12.95 9.95-12.95 9.95 0ZM9.95-31.15L9.95-18.1 14.9-18.1Q16.9-18.1 18.25-18.78 19.6-19.45 20.38-20.45 21.15-21.45 21.48-22.6 21.8-23.75 21.8-24.7L21.8-24.7Q21.8-25.65 21.48-26.78 21.15-27.9 20.35-28.88 19.55-29.85 18.23-30.5 16.9-31.15 14.95-31.15L14.95-31.15 9.95-31.15Z" opacity="1" transform="matrix(1,0,0,1,0,0)" fill="black" class="wordmark-text-0" id="SvgjsPath1092" stroke-width="5" stroke="black" stroke-linejoin="round"></path></svg></g></svg></g></svg></g></svg></g><g></g></svg></g></svg></g></svg></g></mask><g mask="url(#9cc258b9-14ff-415a-ba38-e31cb749fb14)"><g><path xmlns="http://www.w3.org/2000/svg" d="M159.496 213.67h-27.332v-180.14h49.197c9.442 0 18.105 1.242 25.99 3.727 7.852 2.485 14.643 6.179 20.374 11.081 5.698 4.87 10.121 10.817 13.269 17.841 3.147 7.057 4.721 15.14 4.721 24.25v0c0 4.969-0.497 9.889-1.491 14.759-0.994 4.903-2.601 9.624-4.82 14.163-2.253 4.572-5.118 8.796-8.598 12.672-3.479 3.909-7.703 7.189-12.671 9.84v0c6.626 10.436 13.832 21.981 21.616 34.636 7.785 12.689 15.654 25.079 23.605 37.171v0h-32.55c-3.313-5.135-6.742-10.519-10.286-16.15-3.578-5.632-7.139-11.231-10.684-16.797-3.578-5.533-7.057-10.999-10.436-16.399-3.412-5.367-6.609-10.369-9.591-15.007v0h-4.969-25.344zM159.496 58.874v64.85h24.598c6.626 0 12.175-1.126 16.648-3.379 4.472-2.22 8.001-4.986 10.584-8.299 2.551-3.313 4.373-6.874 5.467-10.684 1.06-3.81 1.59-7.288 1.59-10.436v0c0-3.147-0.53-6.593-1.59-10.336-1.093-3.71-2.965-7.189-5.616-10.436-2.65-3.214-6.162-5.897-10.535-8.05-4.406-2.153-9.839-3.23-16.299-3.23v0z" fill="#233565" fill-rule="nonzero" stroke="none" stroke-width="1" stroke-linecap="butt" stroke-linejoin="miter" stroke-miterlimit="10" stroke-dasharray="" stroke-dashoffset="0" font-family="none" font-weight="none" font-size="none" text-anchor="none" style="mix-blend-mode: normal" data-fill-palette-color="tertiary"></path></g></g><g transform="matrix(1,0,0,1,131.89992727272727,37.08)"><svg viewBox="0 0 131.72014545454547 173.04" height="173.04" width="131.72014545454547"><g><svg viewBox="0 0 131.72014545454547 173.04" height="173.04" width="131.72014545454547"><g><svg viewBox="0 0 131.72014545454547 173.04" height="173.04" width="131.72014545454547"><g><svg viewBox="0 0 131.72014545454547 173.04" height="173.04" width="131.72014545454547"><g id="textblocktransform"><svg viewBox="0 0 131.72014545454547 173.04" height="173.04" width="131.72014545454547" id="textblock"><g><svg viewBox="0 0 131.72014545454547 173.04" height="173.04" width="131.72014545454547"><g transform="matrix(1,0,0,1,0,0)"><svg width="131.72014545454547" viewBox="1.4499998092651367 -39.25 32.400001525878906 42.25" height="173.04" data-palette-color="#233565"><path d="M9.95 0L4.45 0 4.45-36.25 14.35-36.25Q17.2-36.25 19.58-35.5 21.95-34.75 23.68-33.27 25.4-31.8 26.35-29.68 27.3-27.55 27.3-24.8L27.3-24.8Q27.3-23.3 27-21.83 26.7-20.35 26.03-18.98 25.35-17.6 24.3-16.43 23.25-15.25 21.75-14.45L21.75-14.45Q23.75-11.3 26.1-7.48 28.45-3.65 30.85 0L30.85 0 24.3 0Q23.3-1.55 22.23-3.25 21.15-4.95 20.08-6.63 19-8.3 17.98-9.93 16.95-11.55 16.05-12.95L16.05-12.95 15.05-12.95 9.95-12.95 9.95 0ZM9.95-31.15L9.95-18.1 14.9-18.1Q16.9-18.1 18.25-18.78 19.6-19.45 20.38-20.45 21.15-21.45 21.48-22.6 21.8-23.75 21.8-24.7L21.8-24.7Q21.8-25.65 21.48-26.78 21.15-27.9 20.35-28.88 19.55-29.85 18.23-30.5 16.9-31.15 14.95-31.15L14.95-31.15 9.95-31.15Z" opacity="1" transform="matrix(1,0,0,1,0,0)" fill="#233565" class="wordmark-text-0" data-fill-palette-color="primary" id="text-0"></path></svg></g></svg></g></svg></g></svg></g><g></g></svg></g></svg></g></svg></g></svg></g><defs></defs></svg><rect width="395.52" height="247.2" fill="none" stroke="none" visibility="hidden"></rect></g></svg></g></svg>